<svg width="1200" height="1200" xmlns="http://www.w3.org/2000/svg" xmlns:xlink="http://www.w3.org/1999/xlink" version="1.1"><g transform="scale(7.199849856646666) translate(3.335574679904518, 3.3356457286410865)">                        <g fill="#ffc93c"><g xmlns="http://www.w3.org/2000/svg"><path d="M44.202,45.804l0.846,0.958c0.691,0.783,1.656,1.183,2.625,1.183c0.823,0,1.65-0.289,2.315-0.877   c1.449-1.279,1.586-3.491,0.306-4.94l-1.637-1.853c-0.26-0.294-0.488-0.611-0.702-0.938c-0.026-0.041-0.05-0.082-0.078-0.121   c-2.12-3.365-1.866-8.215,0.779-11.21c1.32-1.494,3.039-2.317,4.84-2.317s3.52,0.823,4.84,2.317c1.28,1.449,3.491,1.587,4.94,0.307   c1.449-1.279,1.586-3.491,0.307-4.939c-1.369-1.551-2.981-2.737-4.743-3.531c0.632-2.363,2.608-4.069,4.884-4.069   c0.029,0,0.059,0.001,0.088,0.001c0.334,0.007,1.086,0.021,1.745,0.158c0.09,1.854,1.621,3.328,3.496,3.328   c1.933,0,3.5-1.567,3.5-3.5v-1.66c0.135-1.393,0.773-2.128,1.861-2.099c0.348,0.015,2.085,0.212,2.085,2.741V20   c-0.889,1.299-2.288,2.142-3.864,2.142c-1.381,0-2.5,1.119-2.5,2.5s1.119,2.5,2.5,2.5c1.371,0,2.676-0.298,3.864-0.835v7.419   c-1.187-0.536-2.493-0.835-3.864-0.835c-2.061,0-3.976,0.674-5.56,1.821c-0.053,0.037-0.109,0.065-0.16,0.107   c-1.599,1.315-3.567,1.884-5.544,1.6c-1.996-0.286-3.779-1.406-5.021-3.153c-0.8-1.127-2.361-1.388-3.486-0.59   c-1.125,0.801-1.389,2.361-0.589,3.486c2.043,2.875,5.021,4.724,8.387,5.206c0.576,0.083,1.151,0.124,1.723,0.124   c0.185,0,0.368-0.016,0.552-0.024c-0.102,0.6-0.164,1.215-0.164,1.845c0,1.381,1.119,2.5,2.5,2.5s2.5-1.119,2.5-2.5   c0-2.989,2.182-5.422,4.863-5.422c1.576,0,2.974,0.843,3.864,2.142v9.356h7v-9.356c0.889-1.299,2.288-2.142,3.863-2.142   c2.682,0,4.863,2.433,4.863,5.422c0,1.381,1.119,2.5,2.5,2.5s2.5-1.119,2.5-2.5c0-0.631-0.062-1.245-0.164-1.845   c0.184,0.009,0.367,0.024,0.552,0.024c0.571,0,1.147-0.041,1.723-0.124c3.365-0.482,6.343-2.331,8.386-5.206   c0.8-1.125,0.536-2.686-0.589-3.486c-1.125-0.797-2.686-0.536-3.486,0.59c-1.242,1.747-3.025,2.867-5.021,3.153   c-1.975,0.285-3.945-0.284-5.545-1.6c-0.05-0.041-0.106-0.069-0.159-0.106c-1.585-1.148-3.499-1.822-5.561-1.822   c-1.371,0-2.676,0.298-3.863,0.834v-7.419c1.187,0.536,2.493,0.834,3.863,0.834c1.381,0,2.5-1.119,2.5-2.5s-1.119-2.5-2.5-2.5   c-1.575,0-2.974-0.843-3.863-2.142v-5.256c0-2.529,1.737-2.727,2.085-2.741c1.065-0.027,1.725,0.705,1.861,2.1v1.658   c0,1.933,1.567,3.5,3.5,3.5c1.875,0,3.406-1.475,3.496-3.328c0.658-0.137,1.41-0.151,1.744-0.158c0.03,0,0.059-0.001,0.088-0.001   c2.276,0,4.252,1.706,4.884,4.069c-1.762,0.794-3.374,1.98-4.743,3.531c-1.279,1.448-1.142,3.66,0.307,4.939   c1.45,1.28,3.661,1.143,4.94-0.307c1.32-1.494,3.039-2.317,4.84-2.317s3.52,0.823,4.84,2.317c2.645,2.995,2.899,7.846,0.779,11.21   c-0.027,0.039-0.051,0.08-0.077,0.12c-0.214,0.327-0.442,0.644-0.702,0.938l-1.637,1.854c-1.28,1.449-1.143,3.661,0.306,4.94   c0.666,0.588,1.492,0.877,2.315,0.877c0.969,0,1.933-0.399,2.625-1.183l0.846-0.958c1.098,0.94,1.986,2.173,2.596,3.586h7.356   c-0.978-3.861-3.168-7.254-6.17-9.524c2.01-5.495,1.014-11.959-2.99-16.493c-2.295-2.6-5.269-4.186-8.499-4.58   c-1.182-5.759-6.087-10.019-11.816-10.019c-0.074,0-0.149,0.001-0.224,0.003c-0.942,0.018-1.987,0.092-3.045,0.311   c-1.747-2.816-4.793-4.184-7.698-4.08C83.43,5.083,81.544,5.755,80,6.981c-1.544-1.226-3.429-1.899-5.307-1.974   c-2.912-0.136-5.959,1.247-7.705,4.079c-1.057-0.219-2.1-0.292-3.04-0.31c-0.075-0.002-0.149-0.003-0.224-0.003   c-5.728,0-10.633,4.261-11.815,10.019c-3.229,0.394-6.203,1.981-8.499,4.58c-4.004,4.534-5,10.997-2.99,16.493   c-3.002,2.27-5.193,5.663-6.17,9.524h7.356C42.216,47.977,43.104,46.743,44.202,45.804z"/><path d="M127.112,52.89H32.888c-1.933,0-3.5,1.567-3.5,3.5c0,13.797,5.361,26.726,15.096,36.405   c5.781,5.75,9.097,13.854,9.097,22.236c0,2.04,0.694,3.916,1.846,5.417c-1.153,1.513-1.846,3.398-1.846,5.448   c0,2.063,0.702,3.96,1.869,5.478c-1.167,1.518-1.869,3.415-1.869,5.478c0,4.951,4.002,8.979,8.921,8.979h5.433   c1.511,5.287,6.343,9.17,12.065,9.17s10.554-3.882,12.065-9.17h5.433c4.919,0,8.921-4.027,8.921-8.979   c0-2.063-0.702-3.961-1.869-5.478c1.167-1.518,1.869-3.415,1.869-5.478c0-2.05-0.693-3.935-1.846-5.448   c1.153-1.502,1.846-3.377,1.846-5.417c0-8.382,3.315-16.486,9.096-22.236c9.735-9.68,15.096-22.608,15.096-36.405   C130.612,54.457,129.045,52.89,127.112,52.89z M80,150.001c-2.927,0-5.465-1.698-6.722-4.17h13.444   C85.465,148.304,82.927,150.001,80,150.001z M97.498,138.831H62.502c-1.059,0-1.921-0.888-1.921-1.979s0.862-1.979,1.921-1.979   h34.997c1.059,0,1.921,0.888,1.921,1.979S98.557,138.831,97.498,138.831z M97.498,127.874H62.502c-1.059,0-1.921-0.887-1.921-1.978   s0.862-1.979,1.921-1.979h34.997c1.059,0,1.921,0.888,1.921,1.979S98.557,127.874,97.498,127.874z M73.743,84.176h-4.375   c-1.168,0-2.267-0.455-3.094-1.281c-0.826-0.826-1.281-1.925-1.281-3.094s0.455-2.268,1.281-3.094   c0.827-0.826,1.925-1.281,3.094-1.281s2.267,0.455,3.094,1.281c0.826,0.826,1.281,1.925,1.281,3.094V84.176z M81.993,116.918h-3.25   V89.176h3.25V116.918z M110.579,87.832c-7.092,7.054-11.16,16.968-11.16,27.199c0,1.04-0.821,1.887-1.831,1.887h-0.09H86.993   V89.176h4.375c2.504,0,4.858-0.976,6.629-2.746s2.746-4.124,2.746-6.629s-0.975-4.858-2.746-6.629s-4.125-2.746-6.629-2.746   s-4.858,0.976-6.629,2.746c-1.771,1.771-2.746,4.125-2.746,6.629v4.375h-3.25v-4.375c0-2.505-0.975-4.858-2.746-6.629   s-4.125-2.746-6.629-2.746s-4.858,0.976-6.629,2.746c-1.771,1.771-2.746,4.125-2.746,6.629s0.975,4.858,2.746,6.629   c1.771,1.771,4.125,2.746,6.629,2.746h4.375v27.742H62.502h-0.09c-1.009,0-1.831-0.847-1.831-1.887   c0-10.231-4.068-20.146-11.161-27.199c-7.575-7.533-12.083-17.35-12.898-27.942h86.955   C122.662,70.483,118.155,80.299,110.579,87.832z M86.993,84.176v-4.375c0-1.169,0.455-2.268,1.281-3.094   c0.827-0.826,1.925-1.281,3.094-1.281s2.267,0.455,3.094,1.281c0.826,0.826,1.281,1.925,1.281,3.094s-0.455,2.268-1.281,3.094   c-0.827,0.826-1.925,1.281-3.094,1.281H86.993z"/></g></g>        </g></svg>